<?xml version="1.0" encoding="UTF-8"?>
<svg width="32" height="32" viewBox="0 0 32 32" fill="none" xmlns="http://www.w3.org/2000/svg">
  <path d="M12.5 4C9.5 4 6.5 6 5.5 9.5C4.5 13 6.5 17 9.5 18.5" stroke="url(#paint0_linear)" stroke-width="2.5" stroke-linecap="round"/>
  <path d="M11 11C9.5 11 8 12.5 8 14.5C8 16.5 9.5 18 11 18" stroke="url(#paint1_linear)" stroke-width="2.5" stroke-linecap="round"/>
  <path d="M9.5 18.5C11.5 19.5 13 18.5 13 16C13 13.5 11 13 9.5 14" stroke="#4ADE80" stroke-width="2" stroke-linecap="round"/>
  <path d="M20 6.5H23.5L26 9L23.5 11.5H20" stroke="#EC4899" stroke-width="2.5" stroke-linecap="round" stroke-linejoin="round"/>
  <path d="M16 21H19.5L22 23.5L19.5 26H16" stroke="#FBBF24" stroke-width="2.5" stroke-linecap="round" stroke-linejoin="round"/>
  <defs>
    <linearGradient id="paint0_linear" x1="5" y1="4" x2="12.5" y2="18.5" gradientUnits="userSpaceOnUse">
      <stop stop-color="#8B5CF6"/>
      <stop offset="1" stop-color="#3B82F6"/>
    </linearGradient>
    <linearGradient id="paint1_linear" x1="8" y1="11" x2="11" y2="18" gradientUnits="userSpaceOnUse">
      <stop stop-color="#3B82F6"/>
      <stop offset="1" stop-color="#22D3EE"/>
    </linearGradient>
  </defs>
</svg>
